<svg xmlns="http://www.w3.org/2000/svg" xmlns:xlink="http://www.w3.org/1999/xlink" width="567" zoomAndPan="magnify" viewBox="0 0 425.25 84.749999" height="113" preserveAspectRatio="xMidYMid meet" version="1.0"><defs><g/><clipPath id="a9812b3f87"><path d="M 0.65625 5.648438 L 52 5.648438 L 52 57 L 0.65625 57 Z M 0.65625 5.648438 " clip-rule="nonzero"/></clipPath><clipPath id="f761e3c589"><path d="M 8.6875 13.675781 L 43.714844 13.675781 L 43.714844 48.703125 L 8.6875 48.703125 Z M 8.6875 13.675781 " clip-rule="nonzero"/></clipPath><clipPath id="3ce2bf6eaf"><path d="M 64 0.964844 L 213 0.964844 L 213 61.507812 L 64 61.507812 Z M 64 0.964844 " clip-rule="nonzero"/></clipPath><clipPath id="ea534aa03f"><rect x="0" width="149" y="0" height="62"/></clipPath><clipPath id="919a131a89"><path d="M 216 0.964844 L 416.453125 0.964844 L 416.453125 61.507812 L 216 61.507812 Z M 216 0.964844 " clip-rule="nonzero"/></clipPath><clipPath id="5bd276c2bf"><rect x="0" width="201" y="0" height="62"/></clipPath><clipPath id="e6db862841"><rect x="0" width="417" y="0" height="62"/></clipPath></defs><g transform="matrix(1, 0, 0, 1, 4, 11)"><g clip-path="url(#e6db862841)"><g clip-path="url(#a9812b3f87)"><path fill="#3bb88f" d="M 51.859375 31.25 C 51.859375 33.417969 48.914062 35.175781 48.378906 37.175781 C 47.828125 39.25 49.480469 42.238281 48.433594 44.050781 C 47.367188 45.890625 43.941406 45.945312 42.449219 47.4375 C 40.957031 48.933594 40.902344 52.355469 39.0625 53.421875 C 37.246094 54.472656 34.257812 52.816406 32.1875 53.371094 C 30.183594 53.90625 28.429688 56.847656 26.257812 56.847656 C 24.085938 56.847656 22.332031 53.90625 20.328125 53.371094 C 18.257812 52.816406 15.269531 54.472656 13.457031 53.421875 C 11.617188 52.355469 11.5625 48.933594 10.066406 47.4375 C 8.574219 45.945312 5.148438 45.890625 4.085938 44.050781 C 3.035156 42.238281 4.691406 39.25 4.136719 37.175781 C 3.601562 35.175781 0.65625 33.417969 0.65625 31.25 C 0.65625 29.078125 3.601562 27.320312 4.136719 25.320312 C 4.691406 23.246094 3.035156 20.257812 4.085938 18.445312 C 5.148438 16.605469 8.574219 16.550781 10.066406 15.058594 C 11.5625 13.566406 11.617188 10.140625 13.457031 9.074219 C 15.269531 8.023438 18.257812 9.679688 20.328125 9.125 C 22.332031 8.589844 24.085938 5.648438 26.257812 5.648438 C 28.429688 5.648438 30.183594 8.589844 32.1875 9.125 C 34.257812 9.679688 37.246094 8.023438 39.0625 9.074219 C 40.902344 10.140625 40.957031 13.566406 42.449219 15.058594 C 43.941406 16.550781 47.367188 16.605469 48.433594 18.445312 C 49.480469 20.257812 47.828125 23.246094 48.378906 25.320312 C 48.914062 27.320312 51.859375 29.078125 51.859375 31.25 Z M 51.859375 31.25 " fill-opacity="1" fill-rule="nonzero"/></g><path fill="#ffffff" d="M 44.457031 31.25 C 44.457031 31.84375 44.429688 32.4375 44.371094 33.03125 C 44.3125 33.625 44.226562 34.214844 44.109375 34.800781 C 43.992188 35.382812 43.847656 35.960938 43.675781 36.53125 C 43.503906 37.101562 43.300781 37.664062 43.074219 38.214844 C 42.84375 38.765625 42.589844 39.300781 42.308594 39.828125 C 42.027344 40.351562 41.722656 40.863281 41.390625 41.359375 C 41.058594 41.855469 40.707031 42.332031 40.328125 42.792969 C 39.949219 43.253906 39.550781 43.695312 39.128906 44.117188 C 38.707031 44.539062 38.265625 44.9375 37.804688 45.316406 C 37.34375 45.695312 36.867188 46.050781 36.371094 46.382812 C 35.875 46.710938 35.363281 47.019531 34.839844 47.300781 C 34.3125 47.582031 33.773438 47.835938 33.222656 48.0625 C 32.671875 48.292969 32.113281 48.492188 31.542969 48.664062 C 30.972656 48.839844 30.394531 48.984375 29.808594 49.097656 C 29.222656 49.214844 28.636719 49.300781 28.042969 49.359375 C 27.449219 49.417969 26.855469 49.449219 26.257812 49.449219 C 25.664062 49.449219 25.066406 49.417969 24.472656 49.359375 C 23.882812 49.300781 23.292969 49.214844 22.707031 49.097656 C 22.121094 48.984375 21.546875 48.839844 20.976562 48.664062 C 20.40625 48.492188 19.84375 48.292969 19.292969 48.0625 C 18.742188 47.835938 18.203125 47.582031 17.679688 47.300781 C 17.152344 47.019531 16.640625 46.710938 16.148438 46.382812 C 15.652344 46.050781 15.171875 45.695312 14.710938 45.316406 C 14.25 44.9375 13.808594 44.539062 13.386719 44.117188 C 12.96875 43.695312 12.566406 43.253906 12.1875 42.792969 C 11.8125 42.332031 11.457031 41.855469 11.125 41.359375 C 10.792969 40.863281 10.488281 40.351562 10.207031 39.828125 C 9.925781 39.300781 9.671875 38.765625 9.441406 38.214844 C 9.214844 37.664062 9.015625 37.101562 8.839844 36.53125 C 8.667969 35.960938 8.523438 35.382812 8.40625 34.800781 C 8.292969 34.214844 8.203125 33.625 8.144531 33.03125 C 8.085938 32.4375 8.058594 31.84375 8.058594 31.25 C 8.058594 30.652344 8.085938 30.058594 8.144531 29.464844 C 8.203125 28.871094 8.292969 28.28125 8.40625 27.699219 C 8.523438 27.113281 8.667969 26.535156 8.839844 25.964844 C 9.015625 25.394531 9.214844 24.832031 9.441406 24.28125 C 9.671875 23.730469 9.925781 23.195312 10.207031 22.667969 C 10.488281 22.144531 10.792969 21.632812 11.125 21.136719 C 11.457031 20.640625 11.8125 20.164062 12.1875 19.703125 C 12.566406 19.242188 12.96875 18.800781 13.386719 18.378906 C 13.808594 17.957031 14.25 17.558594 14.710938 17.179688 C 15.171875 16.800781 15.652344 16.445312 16.148438 16.113281 C 16.640625 15.785156 17.152344 15.476562 17.679688 15.195312 C 18.203125 14.914062 18.742188 14.660156 19.292969 14.433594 C 19.84375 14.203125 20.40625 14.003906 20.976562 13.832031 C 21.546875 13.660156 22.121094 13.515625 22.707031 13.398438 C 23.292969 13.28125 23.882812 13.195312 24.472656 13.136719 C 25.066406 13.078125 25.664062 13.046875 26.257812 13.046875 C 26.855469 13.046875 27.449219 13.078125 28.042969 13.136719 C 28.636719 13.195312 29.222656 13.28125 29.808594 13.398438 C 30.394531 13.515625 30.972656 13.660156 31.542969 13.832031 C 32.113281 14.003906 32.671875 14.203125 33.222656 14.433594 C 33.773438 14.660156 34.3125 14.914062 34.839844 15.195312 C 35.363281 15.476562 35.875 15.785156 36.371094 16.113281 C 36.867188 16.445312 37.34375 16.800781 37.804688 17.179688 C 38.265625 17.558594 38.707031 17.957031 39.128906 18.378906 C 39.550781 18.800781 39.949219 19.242188 40.328125 19.703125 C 40.707031 20.164062 41.058594 20.640625 41.390625 21.136719 C 41.722656 21.632812 42.027344 22.144531 42.308594 22.667969 C 42.589844 23.195312 42.84375 23.730469 43.074219 24.28125 C 43.300781 24.832031 43.503906 25.394531 43.675781 25.964844 C 43.847656 26.535156 43.992188 27.113281 44.109375 27.699219 C 44.226562 28.28125 44.3125 28.871094 44.371094 29.464844 C 44.429688 30.058594 44.457031 30.652344 44.457031 31.25 Z M 44.457031 31.25 " fill-opacity="1" fill-rule="nonzero"/><path fill="#ffffff" d="M 23.863281 32.566406 L 19.9375 28.640625 L 16.894531 31.683594 L 20.820312 35.609375 L 23.863281 38.648438 L 26.902344 35.609375 L 35.621094 26.886719 L 32.582031 23.847656 Z M 23.863281 32.566406 " fill-opacity="1" fill-rule="nonzero"/><g clip-path="url(#f761e3c589)"><path fill="#1c4a58" d="M 26.257812 48.820312 C 16.570312 48.820312 8.6875 40.9375 8.6875 31.25 C 8.6875 21.558594 16.570312 13.675781 26.257812 13.675781 C 35.949219 13.675781 43.832031 21.558594 43.832031 31.25 C 43.832031 40.9375 35.949219 48.820312 26.257812 48.820312 Z M 26.257812 21.175781 C 20.707031 21.175781 16.1875 25.695312 16.1875 31.25 C 16.1875 36.804688 20.707031 41.320312 26.257812 41.320312 C 31.8125 41.320312 36.332031 36.804688 36.332031 31.25 C 36.332031 25.695312 31.8125 21.175781 26.257812 21.175781 Z M 26.257812 21.175781 " fill-opacity="1" fill-rule="nonzero"/></g><g clip-path="url(#3ce2bf6eaf)"><g transform="matrix(1, 0, 0, 1, 64, 0.000000000000001776)"><g clip-path="url(#ea534aa03f)"><g fill="#1c4a58" fill-opacity="1"><g transform="translate(0.622683, 49.435391)"><g><path d="M 40.8125 -35.125 C 41.070312 -34.625 41.226562 -34.175781 41.28125 -33.78125 C 41.332031 -33.382812 41.359375 -32.804688 41.359375 -32.046875 L 41.359375 -4.390625 C 41.359375 -2.097656 40.726562 -0.75 39.46875 -0.34375 C 38.832031 -0.144531 38.03125 -0.046875 37.0625 -0.046875 C 36.101562 -0.046875 35.34375 -0.128906 34.78125 -0.296875 C 34.21875 -0.460938 33.785156 -0.660156 33.484375 -0.890625 C 33.179688 -1.128906 32.945312 -1.460938 32.78125 -1.890625 C 32.613281 -2.453125 32.53125 -3.316406 32.53125 -4.484375 L 32.53125 -21.171875 C 31.707031 -20.140625 30.5 -18.503906 28.90625 -16.265625 C 27.3125 -14.023438 26.296875 -12.625 25.859375 -12.0625 C 25.429688 -11.5 25.132812 -11.109375 24.96875 -10.890625 C 24.800781 -10.671875 24.390625 -10.367188 23.734375 -9.984375 C 23.085938 -9.609375 22.390625 -9.421875 21.640625 -9.421875 C 20.898438 -9.421875 20.222656 -9.59375 19.609375 -9.9375 C 18.992188 -10.289062 18.550781 -10.632812 18.28125 -10.96875 L 17.890625 -11.515625 C 17.222656 -12.335938 15.910156 -14.101562 13.953125 -16.8125 C 11.992188 -19.519531 10.929688 -20.972656 10.765625 -21.171875 L 10.765625 -4.390625 C 10.765625 -3.617188 10.738281 -3.039062 10.6875 -2.65625 C 10.632812 -2.28125 10.476562 -1.859375 10.21875 -1.390625 C 9.71875 -0.492188 8.421875 -0.046875 6.328125 -0.046875 C 4.296875 -0.046875 3.035156 -0.492188 2.546875 -1.390625 C 2.273438 -1.859375 2.113281 -2.289062 2.0625 -2.6875 C 2.019531 -3.082031 2 -3.679688 2 -4.484375 L 2 -32.140625 C 2 -32.898438 2.019531 -33.472656 2.0625 -33.859375 C 2.113281 -34.242188 2.273438 -34.679688 2.546875 -35.171875 C 3.035156 -36.035156 4.328125 -36.46875 6.421875 -36.46875 C 7.316406 -36.46875 8.085938 -36.359375 8.734375 -36.140625 C 9.390625 -35.929688 9.816406 -35.710938 10.015625 -35.484375 L 10.3125 -35.171875 L 21.625 -20.328125 C 27.269531 -27.804688 31.039062 -32.738281 32.9375 -35.125 C 33.5 -36.019531 34.832031 -36.46875 36.9375 -36.46875 C 39.050781 -36.46875 40.34375 -36.019531 40.8125 -35.125 Z M 40.8125 -35.125 "/></g></g></g><g fill="#1c4a58" fill-opacity="1"><g transform="translate(43.967819, 49.435391)"><g><path d="M 2.546875 -5.125 C 1.679688 -6.195312 1.25 -7.15625 1.25 -8 C 1.25 -8.84375 1.960938 -9.960938 3.390625 -11.359375 C 4.222656 -12.160156 5.101562 -12.5625 6.03125 -12.5625 C 6.957031 -12.5625 8.253906 -11.726562 9.921875 -10.0625 C 10.378906 -9.5 11.039062 -8.957031 11.90625 -8.4375 C 12.769531 -7.925781 13.566406 -7.671875 14.296875 -7.671875 C 17.390625 -7.671875 18.9375 -8.929688 18.9375 -11.453125 C 18.9375 -12.222656 18.507812 -12.863281 17.65625 -13.375 C 16.8125 -13.894531 15.757812 -14.269531 14.5 -14.5 C 13.238281 -14.726562 11.875 -15.097656 10.40625 -15.609375 C 8.945312 -16.128906 7.585938 -16.738281 6.328125 -17.4375 C 5.066406 -18.132812 4.007812 -19.238281 3.15625 -20.75 C 2.3125 -22.257812 1.890625 -24.078125 1.890625 -26.203125 C 1.890625 -29.128906 2.976562 -31.679688 5.15625 -33.859375 C 7.332031 -36.035156 10.296875 -37.125 14.046875 -37.125 C 16.046875 -37.125 17.863281 -36.863281 19.5 -36.34375 C 21.144531 -35.832031 22.285156 -35.3125 22.921875 -34.78125 L 24.171875 -33.828125 C 25.203125 -32.867188 25.71875 -32.054688 25.71875 -31.390625 C 25.71875 -30.722656 25.316406 -29.8125 24.515625 -28.65625 C 23.390625 -26.988281 22.226562 -26.15625 21.03125 -26.15625 C 20.332031 -26.15625 19.46875 -26.488281 18.4375 -27.15625 C 18.332031 -27.21875 18.140625 -27.378906 17.859375 -27.640625 C 17.578125 -27.910156 17.320312 -28.128906 17.09375 -28.296875 C 16.394531 -28.734375 15.503906 -28.953125 14.421875 -28.953125 C 13.347656 -28.953125 12.453125 -28.691406 11.734375 -28.171875 C 11.015625 -27.660156 10.65625 -26.945312 10.65625 -26.03125 C 10.65625 -25.125 11.078125 -24.382812 11.921875 -23.8125 C 12.773438 -23.25 13.832031 -22.867188 15.09375 -22.671875 C 16.351562 -22.472656 17.726562 -22.164062 19.21875 -21.75 C 20.71875 -21.332031 22.097656 -20.820312 23.359375 -20.21875 C 24.628906 -19.625 25.6875 -18.585938 26.53125 -17.109375 C 27.375 -15.640625 27.796875 -13.820312 27.796875 -11.65625 C 27.796875 -9.5 27.363281 -7.597656 26.5 -5.953125 C 25.644531 -4.304688 24.519531 -3.035156 23.125 -2.140625 C 20.425781 -0.378906 17.550781 0.5 14.5 0.5 C 12.9375 0.5 11.457031 0.3125 10.0625 -0.0625 C 8.664062 -0.445312 7.535156 -0.925781 6.671875 -1.5 C 4.910156 -2.5625 3.679688 -3.585938 2.984375 -4.578125 Z M 2.546875 -5.125 "/></g></g></g><g fill="#1c4a58" fill-opacity="1"><g transform="translate(73.014039, 49.435391)"><g><path d="M 40.8125 -35.125 C 41.070312 -34.625 41.226562 -34.175781 41.28125 -33.78125 C 41.332031 -33.382812 41.359375 -32.804688 41.359375 -32.046875 L 41.359375 -4.390625 C 41.359375 -2.097656 40.726562 -0.75 39.46875 -0.34375 C 38.832031 -0.144531 38.03125 -0.046875 37.0625 -0.046875 C 36.101562 -0.046875 35.34375 -0.128906 34.78125 -0.296875 C 34.21875 -0.460938 33.785156 -0.660156 33.484375 -0.890625 C 33.179688 -1.128906 32.945312 -1.460938 32.78125 -1.890625 C 32.613281 -2.453125 32.53125 -3.316406 32.53125 -4.484375 L 32.53125 -21.171875 C 31.707031 -20.140625 30.5 -18.503906 28.90625 -16.265625 C 27.3125 -14.023438 26.296875 -12.625 25.859375 -12.0625 C 25.429688 -11.5 25.132812 -11.109375 24.96875 -10.890625 C 24.800781 -10.671875 24.390625 -10.367188 23.734375 -9.984375 C 23.085938 -9.609375 22.390625 -9.421875 21.640625 -9.421875 C 20.898438 -9.421875 20.222656 -9.59375 19.609375 -9.9375 C 18.992188 -10.289062 18.550781 -10.632812 18.28125 -10.96875 L 17.890625 -11.515625 C 17.222656 -12.335938 15.910156 -14.101562 13.953125 -16.8125 C 11.992188 -19.519531 10.929688 -20.972656 10.765625 -21.171875 L 10.765625 -4.390625 C 10.765625 -3.617188 10.738281 -3.039062 10.6875 -2.65625 C 10.632812 -2.28125 10.476562 -1.859375 10.21875 -1.390625 C 9.71875 -0.492188 8.421875 -0.046875 6.328125 -0.046875 C 4.296875 -0.046875 3.035156 -0.492188 2.546875 -1.390625 C 2.273438 -1.859375 2.113281 -2.289062 2.0625 -2.6875 C 2.019531 -3.082031 2 -3.679688 2 -4.484375 L 2 -32.140625 C 2 -32.898438 2.019531 -33.472656 2.0625 -33.859375 C 2.113281 -34.242188 2.273438 -34.679688 2.546875 -35.171875 C 3.035156 -36.035156 4.328125 -36.46875 6.421875 -36.46875 C 7.316406 -36.46875 8.085938 -36.359375 8.734375 -36.140625 C 9.390625 -35.929688 9.816406 -35.710938 10.015625 -35.484375 L 10.3125 -35.171875 L 21.625 -20.328125 C 27.269531 -27.804688 31.039062 -32.738281 32.9375 -35.125 C 33.5 -36.019531 34.832031 -36.46875 36.9375 -36.46875 C 39.050781 -36.46875 40.34375 -36.019531 40.8125 -35.125 Z M 40.8125 -35.125 "/></g></g></g><g fill="#1c4a58" fill-opacity="1"><g transform="translate(116.359169, 49.435391)"><g><path d="M 10.8125 -8.8125 L 26.15625 -8.8125 C 26.925781 -8.8125 27.5 -8.785156 27.875 -8.734375 C 28.257812 -8.691406 28.703125 -8.535156 29.203125 -8.265625 C 30.097656 -7.804688 30.546875 -6.515625 30.546875 -4.390625 C 30.546875 -2.054688 29.929688 -0.691406 28.703125 -0.296875 C 28.140625 -0.0976562 27.273438 0 26.109375 0 L 6.375 0 C 4.050781 0 2.691406 -0.628906 2.296875 -1.890625 C 2.097656 -2.421875 2 -3.269531 2 -4.4375 L 2 -32.140625 C 2 -33.835938 2.3125 -34.992188 2.9375 -35.609375 C 3.570312 -36.222656 4.769531 -36.53125 6.53125 -36.53125 L 26.15625 -36.53125 C 26.925781 -36.53125 27.5 -36.503906 27.875 -36.453125 C 28.257812 -36.398438 28.703125 -36.238281 29.203125 -35.96875 C 30.097656 -35.507812 30.546875 -34.21875 30.546875 -32.09375 C 30.546875 -29.757812 29.929688 -28.394531 28.703125 -28 C 28.140625 -27.800781 27.273438 -27.703125 26.109375 -27.703125 L 10.8125 -27.703125 L 10.8125 -22.671875 L 20.671875 -22.671875 C 21.441406 -22.671875 22.015625 -22.644531 22.390625 -22.59375 C 22.773438 -22.539062 23.21875 -22.382812 23.71875 -22.125 C 24.613281 -21.65625 25.0625 -20.359375 25.0625 -18.234375 C 25.0625 -15.910156 24.429688 -14.550781 23.171875 -14.15625 C 22.609375 -13.957031 21.742188 -13.859375 20.578125 -13.859375 L 10.8125 -13.859375 Z M 10.8125 -8.8125 "/></g></g></g></g></g></g><g clip-path="url(#919a131a89)"><g transform="matrix(1, 0, 0, 1, 216, 0.000000000000001776)"><g clip-path="url(#5bd276c2bf)"><g fill="#3bb88f" fill-opacity="1"><g transform="translate(0.457191, 49.435391)"><g><path d="M 28 -19.578125 C 29.957031 -17.253906 30.9375 -14.648438 30.9375 -11.765625 C 30.875 -8.441406 29.738281 -5.65625 27.53125 -3.40625 C 25.320312 -1.164062 22.640625 -0.046875 19.484375 -0.046875 L 6.375 -0.046875 C 4.050781 -0.046875 2.691406 -0.675781 2.296875 -1.9375 C 2.097656 -2.507812 2 -3.375 2 -4.53125 L 2 -32.1875 C 2 -32.988281 2.019531 -33.570312 2.0625 -33.9375 C 2.113281 -34.300781 2.273438 -34.734375 2.546875 -35.234375 C 3.003906 -36.128906 4.296875 -36.578125 6.421875 -36.578125 L 18.984375 -36.578125 C 22.035156 -36.578125 24.59375 -35.515625 26.65625 -33.390625 C 28.8125 -31.222656 29.890625 -28.628906 29.890625 -25.609375 C 29.890625 -23.421875 29.257812 -21.410156 28 -19.578125 Z M 22.125 -12.25 C 22.125 -13.050781 22.03125 -13.679688 21.84375 -14.140625 C 21.664062 -14.609375 21.359375 -14.941406 20.921875 -15.140625 C 20.265625 -15.410156 19.335938 -15.546875 18.140625 -15.546875 C 16.941406 -15.546875 16.039062 -15.773438 15.4375 -16.234375 C 14.84375 -16.703125 14.546875 -17.660156 14.546875 -19.109375 C 14.546875 -20.554688 14.851562 -21.507812 15.46875 -21.96875 C 16.082031 -22.4375 17.101562 -22.671875 18.53125 -22.671875 C 19.863281 -22.671875 20.660156 -23.019531 20.921875 -23.71875 C 21.023438 -24.082031 21.078125 -24.675781 21.078125 -25.5 C 21.078125 -26.332031 20.800781 -26.914062 20.25 -27.25 C 19.707031 -27.582031 18.882812 -27.75 17.78125 -27.75 L 10.8125 -27.75 L 10.8125 -8.875 L 18.984375 -8.875 C 21.078125 -8.875 22.125 -10 22.125 -12.25 Z M 22.125 -12.25 "/></g></g></g><g fill="#3bb88f" fill-opacity="1"><g transform="translate(32.642197, 49.435391)"><g><path d="M 29.953125 -6.171875 C 30.441406 -4.984375 30.6875 -4.125 30.6875 -3.59375 C 30.6875 -2.320312 29.660156 -1.257812 27.609375 -0.40625 C 26.546875 0.0625 25.6875 0.296875 25.03125 0.296875 C 24.382812 0.296875 23.851562 0.140625 23.4375 -0.171875 C 23.03125 -0.484375 22.722656 -0.804688 22.515625 -1.140625 C 22.191406 -1.773438 20.898438 -4.785156 18.640625 -10.171875 L 17.09375 -10.0625 L 10.8125 -10.0625 L 10.8125 -4.4375 C 10.8125 -3.664062 10.785156 -3.085938 10.734375 -2.703125 C 10.679688 -2.328125 10.523438 -1.890625 10.265625 -1.390625 C 9.796875 -0.492188 8.5 -0.046875 6.375 -0.046875 C 4.050781 -0.046875 2.691406 -0.660156 2.296875 -1.890625 C 2.097656 -2.453125 2 -3.316406 2 -4.484375 L 2 -32.140625 C 2 -32.898438 2.019531 -33.472656 2.0625 -33.859375 C 2.113281 -34.242188 2.273438 -34.679688 2.546875 -35.171875 C 3.003906 -36.078125 4.296875 -36.53125 6.421875 -36.53125 L 17.1875 -36.53125 C 20.113281 -36.53125 22.957031 -35.460938 25.71875 -33.328125 C 27.039062 -32.304688 28.132812 -30.914062 29 -29.15625 C 29.863281 -27.394531 30.296875 -25.429688 30.296875 -23.265625 C 30.296875 -19.515625 29.050781 -16.425781 26.5625 -14 C 27.289062 -12.238281 28.421875 -9.628906 29.953125 -6.171875 Z M 10.8125 -18.890625 L 17.1875 -18.890625 C 18.15625 -18.890625 19.117188 -19.253906 20.078125 -19.984375 C 21.046875 -20.710938 21.53125 -21.804688 21.53125 -23.265625 C 21.53125 -24.734375 21.046875 -25.835938 20.078125 -26.578125 C 19.117188 -27.328125 18.125 -27.703125 17.09375 -27.703125 L 10.8125 -27.703125 Z M 10.8125 -18.890625 "/></g></g></g><g fill="#3bb88f" fill-opacity="1"><g transform="translate(64.079873, 49.435391)"><g><path d="M 23.078125 -33.9375 L 36.53125 -6.125 C 37.09375 -5 37.375 -4.15625 37.375 -3.59375 C 37.375 -2.394531 36.410156 -1.3125 34.484375 -0.34375 C 33.347656 0.21875 32.457031 0.5 31.8125 0.5 C 31.164062 0.5 30.632812 0.347656 30.21875 0.046875 C 29.800781 -0.253906 29.5 -0.566406 29.3125 -0.890625 C 29.132812 -1.222656 28.878906 -1.722656 28.546875 -2.390625 L 25.953125 -7.765625 L 12.15625 -7.765625 L 9.5625 -2.390625 C 9.226562 -1.722656 8.96875 -1.238281 8.78125 -0.9375 C 8.601562 -0.644531 8.304688 -0.335938 7.890625 -0.015625 C 7.484375 0.296875 6.953125 0.453125 6.296875 0.453125 C 5.648438 0.453125 4.765625 0.164062 3.640625 -0.40625 C 1.710938 -1.332031 0.75 -2.394531 0.75 -3.59375 C 0.75 -4.15625 1.03125 -5 1.59375 -6.125 L 15.046875 -33.984375 C 15.410156 -34.742188 15.96875 -35.359375 16.71875 -35.828125 C 17.46875 -36.296875 18.253906 -36.53125 19.078125 -36.53125 C 20.878906 -36.53125 22.210938 -35.664062 23.078125 -33.9375 Z M 19.03125 -21.96875 L 15.75 -15.140625 L 22.375 -15.140625 Z M 19.03125 -21.96875 "/></g></g></g><g fill="#3bb88f" fill-opacity="1"><g transform="translate(102.193696, 49.435391)"><g><path d="M 25.578125 -35 C 25.898438 -35.582031 26.375 -35.972656 27 -36.171875 C 27.632812 -36.367188 28.425781 -36.46875 29.375 -36.46875 C 30.320312 -36.46875 31.082031 -36.382812 31.65625 -36.21875 C 32.238281 -36.050781 32.671875 -35.851562 32.953125 -35.625 C 33.242188 -35.394531 33.453125 -35.046875 33.578125 -34.578125 C 33.785156 -34.046875 33.890625 -33.203125 33.890625 -32.046875 L 33.890625 -4.390625 C 33.890625 -3.585938 33.863281 -3.003906 33.8125 -2.640625 C 33.757812 -2.273438 33.597656 -1.84375 33.328125 -1.34375 C 32.867188 -0.445312 31.578125 0 29.453125 0 C 28.148438 0 27.25 -0.0976562 26.75 -0.296875 C 26.257812 -0.492188 25.847656 -0.8125 25.515625 -1.25 C 18.035156 -11.207031 13.117188 -17.71875 10.765625 -20.78125 L 10.765625 -4.390625 C 10.765625 -3.585938 10.738281 -3.003906 10.6875 -2.640625 C 10.632812 -2.273438 10.476562 -1.84375 10.21875 -1.34375 C 9.75 -0.445312 8.453125 0 6.328125 0 C 4.265625 0 3.003906 -0.445312 2.546875 -1.34375 C 2.273438 -1.84375 2.113281 -2.289062 2.0625 -2.6875 C 2.019531 -3.082031 2 -3.664062 2 -4.4375 L 2 -32.234375 C 2 -33.492188 2.15625 -34.414062 2.46875 -35 C 2.78125 -35.582031 3.25 -35.972656 3.875 -36.171875 C 4.507812 -36.367188 5.328125 -36.46875 6.328125 -36.46875 C 7.328125 -36.46875 8.113281 -36.375 8.6875 -36.1875 C 9.269531 -36.007812 9.679688 -35.804688 9.921875 -35.578125 C 10.046875 -35.472656 10.425781 -35.039062 11.0625 -34.28125 C 18.070312 -24.75 22.753906 -18.453125 25.109375 -15.390625 L 25.109375 -32.234375 C 25.109375 -33.492188 25.265625 -34.414062 25.578125 -35 Z M 25.578125 -35 "/></g></g></g><g fill="#3bb88f" fill-opacity="1"><g transform="translate(138.065537, 49.435391)"><g><path d="M 6.421875 -36.578125 L 15.640625 -36.53125 C 20.460938 -36.53125 24.695312 -34.789062 28.34375 -31.3125 C 32 -27.84375 33.828125 -23.570312 33.828125 -18.5 C 33.828125 -13.4375 32.039062 -9.09375 28.46875 -5.46875 C 24.90625 -1.851562 20.582031 -0.046875 15.5 -0.046875 L 6.375 -0.046875 C 4.351562 -0.046875 3.09375 -0.460938 2.59375 -1.296875 C 2.195312 -1.992188 2 -3.054688 2 -4.484375 L 2 -32.1875 C 2 -32.988281 2.019531 -33.570312 2.0625 -33.9375 C 2.113281 -34.300781 2.273438 -34.734375 2.546875 -35.234375 C 3.003906 -36.128906 4.296875 -36.578125 6.421875 -36.578125 Z M 15.640625 -8.875 C 18.035156 -8.875 20.195312 -9.757812 22.125 -11.53125 C 24.050781 -13.3125 25.015625 -15.546875 25.015625 -18.234375 C 25.015625 -20.921875 24.078125 -23.171875 22.203125 -24.984375 C 20.328125 -26.796875 18.125 -27.703125 15.59375 -27.703125 L 10.8125 -27.703125 L 10.8125 -8.875 Z M 15.640625 -8.875 "/></g></g></g><g fill="#3bb88f" fill-opacity="1"><g transform="translate(171.097504, 49.435391)"><g><path d="M 2.546875 -5.125 C 1.679688 -6.195312 1.25 -7.15625 1.25 -8 C 1.25 -8.84375 1.960938 -9.960938 3.390625 -11.359375 C 4.222656 -12.160156 5.101562 -12.5625 6.03125 -12.5625 C 6.957031 -12.5625 8.253906 -11.726562 9.921875 -10.0625 C 10.378906 -9.5 11.039062 -8.957031 11.90625 -8.4375 C 12.769531 -7.925781 13.566406 -7.671875 14.296875 -7.671875 C 17.390625 -7.671875 18.9375 -8.929688 18.9375 -11.453125 C 18.9375 -12.222656 18.507812 -12.863281 17.65625 -13.375 C 16.8125 -13.894531 15.757812 -14.269531 14.5 -14.5 C 13.238281 -14.726562 11.875 -15.097656 10.40625 -15.609375 C 8.945312 -16.128906 7.585938 -16.738281 6.328125 -17.4375 C 5.066406 -18.132812 4.007812 -19.238281 3.15625 -20.75 C 2.3125 -22.257812 1.890625 -24.078125 1.890625 -26.203125 C 1.890625 -29.128906 2.976562 -31.679688 5.15625 -33.859375 C 7.332031 -36.035156 10.296875 -37.125 14.046875 -37.125 C 16.046875 -37.125 17.863281 -36.863281 19.5 -36.34375 C 21.144531 -35.832031 22.285156 -35.3125 22.921875 -34.78125 L 24.171875 -33.828125 C 25.203125 -32.867188 25.71875 -32.054688 25.71875 -31.390625 C 25.71875 -30.722656 25.316406 -29.8125 24.515625 -28.65625 C 23.390625 -26.988281 22.226562 -26.15625 21.03125 -26.15625 C 20.332031 -26.15625 19.46875 -26.488281 18.4375 -27.15625 C 18.332031 -27.21875 18.140625 -27.378906 17.859375 -27.640625 C 17.578125 -27.910156 17.320312 -28.128906 17.09375 -28.296875 C 16.394531 -28.734375 15.503906 -28.953125 14.421875 -28.953125 C 13.347656 -28.953125 12.453125 -28.691406 11.734375 -28.171875 C 11.015625 -27.660156 10.65625 -26.945312 10.65625 -26.03125 C 10.65625 -25.125 11.078125 -24.382812 11.921875 -23.8125 C 12.773438 -23.25 13.832031 -22.867188 15.09375 -22.671875 C 16.351562 -22.472656 17.726562 -22.164062 19.21875 -21.75 C 20.71875 -21.332031 22.097656 -20.820312 23.359375 -20.21875 C 24.628906 -19.625 25.6875 -18.585938 26.53125 -17.109375 C 27.375 -15.640625 27.796875 -13.820312 27.796875 -11.65625 C 27.796875 -9.5 27.363281 -7.597656 26.5 -5.953125 C 25.644531 -4.304688 24.519531 -3.035156 23.125 -2.140625 C 20.425781 -0.378906 17.550781 0.5 14.5 0.5 C 12.9375 0.5 11.457031 0.3125 10.0625 -0.0625 C 8.664062 -0.445312 7.535156 -0.925781 6.671875 -1.5 C 4.910156 -2.5625 3.679688 -3.585938 2.984375 -4.578125 Z M 2.546875 -5.125 "/></g></g></g></g></g></g></g></g></svg>